<svg width="7mm" height="7mm" version="1.1" viewBox="0 0 8 8" xmlns="http://www.w3.org/2000/svg">
 <circle r="1.7" transform="translate(6 3.5)"/>
 <g transform="translate(-38.011 -106.95)">
  <g transform="translate(5.1386 -18.038)">
   <g>
    <path d="m34.146 129.11c0.05715-5e-3 0.1905 0 0.24289 9e-3 0.18574 0.0381 0.30004 0.13335 0.3429 0.29051 0.0095 0.0286 0.0095 0.0476 0.0095 0.10478 0 0.0714 0 0.10001-0.02381 0.17145-0.10478 0.32385-0.48578 0.62388-0.8763 0.69532-0.08572 0.0143-0.2286 0.0143-0.29051 5e-3 -0.19526-0.0429-0.31432-0.13811-0.35719-0.29527-0.0095-0.0286-0.0095-0.0476-0.0095-0.10478 0-0.0714 0-0.10001 0.02381-0.17145 0.0381-0.12382 0.11906-0.24289 0.2286-0.35242 0.1905-0.1905 0.45244-0.31909 0.70961-0.35243z"/>
    <path d="m35.985 129.11c0.05715-5e-3 0.1905 0 0.24289 9e-3 0.18574 0.0381 0.30004 0.13335 0.3429 0.29051 0.0095 0.0286 0.0095 0.0476 0.0095 0.10478 0 0.0714 0 0.10001-0.02381 0.17145-0.10478 0.32385-0.48578 0.62388-0.8763 0.69532-0.08572 0.0143-0.2286 0.0143-0.29051 5e-3 -0.19526-0.0429-0.31432-0.13811-0.35719-0.29527-0.0095-0.0286-0.0095-0.0476-0.0095-0.10478 0-0.0714 0-0.10001 0.02381-0.17145 0.0381-0.12382 0.11906-0.24289 0.2286-0.35242 0.1905-0.1905 0.45244-0.31909 0.70961-0.35243z"/>
    <path d="m34.732 126.08v3.3659h-0.15875v-3.3659z"/>
    <path d="m36.572 126.08v3.3659h-0.15875v-3.3659z"/>
   </g>
   <g fill="currentColor">
    <path d="m34.574 126.08h1.9983v0.41011h-1.9983z" stroke-width=".22334"/>
    <path d="m34.578 126.73h1.9983v0.41011h-1.9983z" stroke-width=".22334"/>
    <path d="m33.702 130.89c1.4337 1.0772 3.5842 1.0772 5.0179 0-1.4337 1.4363-3.5842 1.4363-5.0179 0z" stroke-width=".20712"/>
   </g>
  </g>
 </g>
</svg>
