<svg width="7mm" height="7mm" version="1.1" viewBox="0 0 8 8" xmlns="http://www.w3.org/2000/svg">
 <circle r="1.7" transform="translate(6 3.5)"/>
 <g transform="translate(-38.011 -106.95)">
  <g transform="translate(0 -.56889)">
   <g>
    <path d="m40.663 108.51v-0.59531h0.0666v0.0286c0 0.0476 0.01 0.13334 0.019 0.19526 0.0381 0.24289 0.14288 0.4953 0.33814 0.81915l0.15716 0.25242c0.13811 0.2286 0.21908 0.37147 0.28099 0.49053 0.12859 0.2667 0.1905 0.48578 0.20002 0.71914 5e-3 0.24289-0.0333 0.51911-0.11906 0.79533-0.0333 0.10954-0.081 0.23812-0.0953 0.25241-0.0143 0.019-0.0429 0.0333-0.0667 0.0333s-0.0667-0.019-0.081-0.0333c-0.0238-0.0286-0.0286-0.0667-0.0143-0.10477 0.0238-0.0524 0.0714-0.1905 0.0905-0.25718 0.0667-0.21908 0.0953-0.40958 0.0953-0.61912 0-0.10478 0-0.1286-0.01-0.17622-0.0619-0.32861-0.28575-0.67629-0.72866-1.1335l-0.0667-0.0714h-0.0666z"/>
    <path d="m40.14 111.67c0.057-5e-3 0.19011 0 0.2424 0.01 0.18536 0.0381 0.29943 0.13336 0.34221 0.29052 0.01 0.0286 0.01 0.0476 0.01 0.10478 0 0.0714 0 0.10001-0.0238 0.17145-0.10456 0.32385-0.4848 0.62388-0.87455 0.69532-0.0856 0.0143-0.22814 0.0143-0.28993 5e-3 -0.19487-0.0429-0.31369-0.13812-0.35647-0.29528-0.01-0.0286-0.01-0.0476-0.01-0.10477 0-0.0714 0-0.10002 0.0238-0.17145 0.038-0.12383 0.11882-0.24289 0.22814-0.35243 0.19012-0.1905 0.45153-0.31909 0.7082-0.35242z"/>
    <path d="m41.703 108.96c0.0238-0.0143 0.0524-0.01 0.081 0 0.0238 0.0143 0.0333 0.0238 0.0476 0.0524s0.01 0.0619-5e-3 0.0857c-0.01 0.0238-1.7288 1.4097-1.7574 1.424-0.0238 0.0143-0.0524 0.01-0.0762 0-0.0286-0.0143-0.0381-0.0238-0.0524-0.0524s-0.01-0.0619 5e-3 -0.0857c0.01-0.0238 1.7288-1.4097 1.7574-1.424z"/>
    <path d="m40.73 107.91v4.101h-0.15875v-4.101z"/>
   </g>
   <path d="m39.965 113.45c1.0965 0.67744 2.7447 0.67744 3.8412 0-1.0965 1.0162-2.7447 1.0162-3.8412 0z" fill="currentColor" stroke-width=".24319"/>
  </g>
 </g>
</svg>
